<svg width="23" height="24" viewBox="0 0 23 24" fill="none" xmlns="http://www.w3.org/2000/svg">
<path d="M0.85 5.51725C0.85 6.58298 0.908214 7.38138 1.04294 7.98758C1.17551 8.58412 1.37061 8.94118 1.60876 9.17933C1.8469 9.41747 2.20397 9.61257 2.80051 9.74515C3.40671 9.87987 4.2051 9.93809 5.27083 9.93809C6.33657 9.93809 7.13496 9.87987 7.74116 9.74515C8.3377 9.61257 8.69477 9.41747 8.93291 9.17933C9.17105 8.94118 9.36615 8.58412 9.49873 7.98758C9.63345 7.38138 9.69167 6.58298 9.69167 5.51725C9.69167 4.45152 9.63345 3.65313 9.49873 3.04693C9.36615 2.45038 9.17105 2.09332 8.93291 1.85518C8.69477 1.61703 8.3377 1.42193 7.74116 1.28936C7.13496 1.15463 6.33657 1.09642 5.27083 1.09642C4.2051 1.09642 3.40671 1.15463 2.80051 1.28936C2.20397 1.42193 1.8469 1.61703 1.60876 1.85518C1.37061 2.09332 1.17551 2.45038 1.04294 3.04693C0.908214 3.65313 0.85 4.45152 0.85 5.51725Z" stroke="white" stroke-width="1.7" stroke-linecap="round" stroke-linejoin="round"/>
<path d="M0.85 17.9757C0.85 19.0415 0.908214 19.8399 1.04294 20.4461C1.17551 21.0426 1.37061 21.3997 1.60876 21.6378C1.8469 21.876 2.20397 22.0711 2.80051 22.2036C3.40671 22.3384 4.2051 22.3966 5.27083 22.3966C6.33657 22.3966 7.13496 22.3384 7.74116 22.2036C8.3377 22.0711 8.69477 21.876 8.93291 21.6378C9.17105 21.3997 9.36615 21.0426 9.49873 20.4461C9.63345 19.8399 9.69167 19.0415 9.69167 17.9757C9.69167 16.91 9.63345 16.1116 9.49873 15.5054C9.36615 14.9089 9.17105 14.5518 8.93291 14.3137C8.69477 14.0755 8.3377 13.8804 7.74116 13.7479C7.13496 13.6131 6.33657 13.5549 5.27083 13.5549C4.2051 13.5549 3.40671 13.6131 2.80051 13.7479C2.20397 13.8804 1.8469 14.0755 1.60876 14.3137C1.37061 14.5518 1.17551 14.9089 1.04294 15.5054C0.908214 16.1116 0.85 16.91 0.85 17.9757Z" stroke="white" stroke-width="1.7" stroke-linecap="round" stroke-linejoin="round"/>
<path d="M13.3085 5.51725C13.3085 6.58298 13.3667 7.38138 13.5014 7.98758C13.634 8.58412 13.8291 8.94118 14.0673 9.17933C14.3054 9.41747 14.6625 9.61257 15.259 9.74515C15.8652 9.87987 16.6636 9.93809 17.7293 9.93809C18.7951 9.93809 19.5935 9.87987 20.1997 9.74515C20.7962 9.61257 21.1533 9.41747 21.3914 9.17933C21.6295 8.94118 21.8246 8.58412 21.9572 7.98758C22.0919 7.38138 22.1502 6.58298 22.1502 5.51725C22.1502 4.45152 22.0919 3.65313 21.9572 3.04693C21.8246 2.45038 21.6295 2.09332 21.3914 1.85518C21.1533 1.61703 20.7962 1.42193 20.1997 1.28936C19.5935 1.15463 18.7951 1.09642 17.7293 1.09642C16.6636 1.09642 15.8652 1.15463 15.259 1.28936C14.6625 1.42193 14.3054 1.61703 14.0673 1.85518C13.8291 2.09332 13.634 2.45038 13.5014 3.04693C13.3667 3.65313 13.3085 4.45152 13.3085 5.51725Z" stroke="white" stroke-width="1.7" stroke-linecap="round" stroke-linejoin="round"/>
<path d="M13.3085 17.9757C13.3085 19.0415 13.3667 19.8399 13.5014 20.4461C13.634 21.0426 13.8291 21.3997 14.0673 21.6378C14.3054 21.876 14.6625 22.0711 15.259 22.2036C15.8652 22.3384 16.6636 22.3966 17.7293 22.3966C18.7951 22.3966 19.5935 22.3384 20.1997 22.2036C20.7962 22.0711 21.1533 21.876 21.3914 21.6378C21.6295 21.3997 21.8246 21.0426 21.9572 20.4461C22.0919 19.8399 22.1502 19.0415 22.1502 17.9757C22.1502 16.91 22.0919 16.1116 21.9572 15.5054C21.8246 14.9089 21.6295 14.5518 21.3914 14.3137C21.1533 14.0755 20.7962 13.8804 20.1997 13.7479C19.5935 13.6131 18.7951 13.5549 17.7293 13.5549C16.6636 13.5549 15.8652 13.6131 15.259 13.7479C14.6625 13.8804 14.3054 14.0755 14.0673 14.3137C13.8291 14.5518 13.634 14.9089 13.5014 15.5054C13.3667 16.1116 13.3085 16.91 13.3085 17.9757Z" stroke="white" stroke-width="1.7" stroke-linecap="round" stroke-linejoin="round"/>
</svg>
